<mxfile host="app.diagrams.net" agent="Mozilla/5.0 (Windows NT 10.0; Win64; x64) AppleWebKit/537.36 (KHTML, like Gecko) Chrome/128.0.0.0 Safari/537.36 Edg/128.0.0.0" version="24.7.10">
  <diagram id="R2lEEEUBdFMjLlhIrx00" name="Page-1">
    <mxGraphModel dx="2316" dy="1184" grid="1" gridSize="10" guides="1" tooltips="1" connect="1" arrows="1" fold="1" page="1" pageScale="1" pageWidth="850" pageHeight="1100" math="0" shadow="0" extFonts="Permanent Marker^https://fonts.googleapis.com/css?family=Permanent+Marker">
      <root>
        <mxCell id="0" />
        <mxCell id="1" parent="0" />
        <mxCell id="nqi_J4vWOUpEKVUcSu3V-36" style="edgeStyle=orthogonalEdgeStyle;rounded=0;orthogonalLoop=1;jettySize=auto;html=1;labelBackgroundColor=none;strokeColor=#E07A5F;fontColor=default;" edge="1" parent="1" source="nqi_J4vWOUpEKVUcSu3V-26" target="nqi_J4vWOUpEKVUcSu3V-37">
          <mxGeometry relative="1" as="geometry">
            <mxPoint x="660" y="680" as="targetPoint" />
          </mxGeometry>
        </mxCell>
        <mxCell id="nqi_J4vWOUpEKVUcSu3V-26" value="" style="shape=table;childLayout=tableLayout;startSize=0;fillColor=none;collapsible=0;recursiveResize=0;expand=0;labelBackgroundColor=none;strokeColor=#E07A5F;fontColor=#393C56;" vertex="1" parent="1">
          <mxGeometry x="50" y="240" width="490" height="364" as="geometry" />
        </mxCell>
        <mxCell id="nqi_J4vWOUpEKVUcSu3V-27" value="" style="shape=tableRow;horizontal=0;swimlaneHead=0;swimlaneBody=0;top=0;left=0;strokeColor=#E07A5F;bottom=0;right=0;dropTarget=0;fontStyle=0;fillColor=none;points=[[0,0.5],[1,0.5]];portConstraint=eastwest;startSize=40;collapsible=0;recursiveResize=0;expand=0;labelBackgroundColor=none;fontColor=#393C56;" vertex="1" parent="nqi_J4vWOUpEKVUcSu3V-26">
          <mxGeometry width="490" height="150" as="geometry" />
        </mxCell>
        <mxCell id="nqi_J4vWOUpEKVUcSu3V-28" value="Organiser" style="swimlane;swimlaneHead=0;swimlaneBody=0;fontStyle=0;strokeColor=#E07A5F;connectable=0;fillColor=none;startSize=70;collapsible=0;recursiveResize=0;expand=0;fontSize=42;labelBackgroundColor=none;fontColor=#393C56;" vertex="1" parent="nqi_J4vWOUpEKVUcSu3V-27">
          <mxGeometry x="40" width="450" height="150" as="geometry">
            <mxRectangle width="450" height="150" as="alternateBounds" />
          </mxGeometry>
        </mxCell>
        <mxCell id="nqi_J4vWOUpEKVUcSu3V-33" value="Username" style="text;html=1;align=center;verticalAlign=middle;resizable=0;points=[];autosize=1;strokeColor=none;fillColor=none;fontSize=38;labelBackgroundColor=none;fontColor=#393C56;" vertex="1" parent="nqi_J4vWOUpEKVUcSu3V-28">
          <mxGeometry x="110" y="90" width="200" height="60" as="geometry" />
        </mxCell>
        <mxCell id="nqi_J4vWOUpEKVUcSu3V-29" value="" style="shape=tableRow;horizontal=0;swimlaneHead=0;swimlaneBody=0;top=0;left=0;strokeColor=#E07A5F;bottom=0;right=0;dropTarget=0;fontStyle=0;fillColor=none;points=[[0,0.5],[1,0.5]];portConstraint=eastwest;startSize=40;collapsible=0;recursiveResize=0;expand=0;labelBackgroundColor=none;fontColor=#393C56;" vertex="1" parent="nqi_J4vWOUpEKVUcSu3V-26">
          <mxGeometry y="150" width="490" height="88" as="geometry" />
        </mxCell>
        <mxCell id="nqi_J4vWOUpEKVUcSu3V-30" value="P" style="swimlane;swimlaneHead=0;swimlaneBody=0;fontStyle=0;connectable=0;startSize=0;collapsible=0;recursiveResize=0;expand=0;labelBackgroundColor=none;fillColor=#F2CC8F;strokeColor=#E07A5F;fontColor=#393C56;" vertex="1" parent="nqi_J4vWOUpEKVUcSu3V-29">
          <mxGeometry x="40" width="450" height="88" as="geometry">
            <mxRectangle width="450" height="88" as="alternateBounds" />
          </mxGeometry>
        </mxCell>
        <mxCell id="nqi_J4vWOUpEKVUcSu3V-34" value="psid&lt;div style=&quot;font-size: 40px;&quot;&gt;&lt;br style=&quot;font-size: 40px;&quot;&gt;&lt;/div&gt;" style="text;html=1;align=center;verticalAlign=middle;resizable=0;points=[];autosize=1;strokeColor=none;fillColor=none;fontSize=40;labelBackgroundColor=none;fontColor=#393C56;" vertex="1" parent="nqi_J4vWOUpEKVUcSu3V-30">
          <mxGeometry x="155" y="10" width="100" height="110" as="geometry" />
        </mxCell>
        <mxCell id="nqi_J4vWOUpEKVUcSu3V-31" value="" style="shape=tableRow;horizontal=0;swimlaneHead=0;swimlaneBody=0;top=0;left=0;strokeColor=#E07A5F;bottom=0;right=0;dropTarget=0;fontStyle=0;fillColor=none;points=[[0,0.5],[1,0.5]];portConstraint=eastwest;startSize=40;collapsible=0;recursiveResize=0;expand=0;labelBackgroundColor=none;fontColor=#393C56;" vertex="1" parent="nqi_J4vWOUpEKVUcSu3V-26">
          <mxGeometry y="238" width="490" height="126" as="geometry" />
        </mxCell>
        <mxCell id="nqi_J4vWOUpEKVUcSu3V-32" value="" style="swimlane;swimlaneHead=0;swimlaneBody=0;fontStyle=0;connectable=0;strokeColor=#E07A5F;fillColor=none;startSize=0;collapsible=0;recursiveResize=0;expand=0;labelBackgroundColor=none;fontColor=#393C56;" vertex="1" parent="nqi_J4vWOUpEKVUcSu3V-31">
          <mxGeometry x="40" width="450" height="126" as="geometry">
            <mxRectangle width="450" height="126" as="alternateBounds" />
          </mxGeometry>
        </mxCell>
        <mxCell id="nqi_J4vWOUpEKVUcSu3V-35" value="password&lt;div style=&quot;font-size: 42px;&quot;&gt;&lt;br style=&quot;font-size: 42px;&quot;&gt;&lt;/div&gt;" style="text;html=1;align=center;verticalAlign=middle;resizable=0;points=[];autosize=1;strokeColor=none;fillColor=none;fontSize=42;labelBackgroundColor=none;fontColor=#393C56;" vertex="1" parent="nqi_J4vWOUpEKVUcSu3V-32">
          <mxGeometry x="110" y="16" width="200" height="110" as="geometry" />
        </mxCell>
        <mxCell id="nqi_J4vWOUpEKVUcSu3V-37" value="Creates" style="rhombus;whiteSpace=wrap;html=1;fontSize=18;labelBackgroundColor=none;fillColor=#F2CC8F;strokeColor=#E07A5F;fontColor=#393C56;" vertex="1" parent="1">
          <mxGeometry x="620" y="640" width="150" height="120" as="geometry" />
        </mxCell>
        <mxCell id="nqi_J4vWOUpEKVUcSu3V-65" style="edgeStyle=orthogonalEdgeStyle;rounded=0;orthogonalLoop=1;jettySize=auto;html=1;labelBackgroundColor=none;strokeColor=#E07A5F;fontColor=default;" edge="1" parent="1" source="nqi_J4vWOUpEKVUcSu3V-56">
          <mxGeometry relative="1" as="geometry">
            <mxPoint x="690" y="760.0000000000002" as="targetPoint" />
          </mxGeometry>
        </mxCell>
        <mxCell id="nqi_J4vWOUpEKVUcSu3V-56" value="" style="shape=table;startSize=0;container=1;collapsible=0;childLayout=tableLayout;fontSize=40;labelBackgroundColor=none;fillColor=#F2CC8F;strokeColor=#E07A5F;fontColor=#393C56;" vertex="1" parent="1">
          <mxGeometry x="115" y="710" width="310" height="290" as="geometry" />
        </mxCell>
        <mxCell id="nqi_J4vWOUpEKVUcSu3V-57" value="" style="shape=tableRow;horizontal=0;startSize=0;swimlaneHead=0;swimlaneBody=0;strokeColor=#E07A5F;top=0;left=0;bottom=0;right=0;collapsible=0;dropTarget=0;fillColor=none;points=[[0,0.5],[1,0.5]];portConstraint=eastwest;labelBackgroundColor=none;fontColor=#393C56;" vertex="1" parent="nqi_J4vWOUpEKVUcSu3V-56">
          <mxGeometry width="310" height="73" as="geometry" />
        </mxCell>
        <mxCell id="nqi_J4vWOUpEKVUcSu3V-58" value="Survey" style="shape=partialRectangle;html=1;whiteSpace=wrap;connectable=0;strokeColor=#E07A5F;overflow=hidden;fillColor=none;top=0;left=0;bottom=0;right=0;pointerEvents=1;fontSize=32;labelBackgroundColor=none;fontColor=#393C56;" vertex="1" parent="nqi_J4vWOUpEKVUcSu3V-57">
          <mxGeometry width="310" height="73" as="geometry">
            <mxRectangle width="310" height="73" as="alternateBounds" />
          </mxGeometry>
        </mxCell>
        <mxCell id="nqi_J4vWOUpEKVUcSu3V-59" value="" style="shape=tableRow;horizontal=0;startSize=0;swimlaneHead=0;swimlaneBody=0;strokeColor=#E07A5F;top=0;left=0;bottom=0;right=0;collapsible=0;dropTarget=0;fillColor=none;points=[[0,0.5],[1,0.5]];portConstraint=eastwest;labelBackgroundColor=none;fontColor=#393C56;" vertex="1" parent="nqi_J4vWOUpEKVUcSu3V-56">
          <mxGeometry y="73" width="310" height="72" as="geometry" />
        </mxCell>
        <mxCell id="nqi_J4vWOUpEKVUcSu3V-60" value="LAnguage&amp;nbsp;" style="shape=partialRectangle;html=1;whiteSpace=wrap;connectable=0;strokeColor=#E07A5F;overflow=hidden;fillColor=none;top=0;left=0;bottom=0;right=0;pointerEvents=1;fontSize=33;labelBackgroundColor=none;fontColor=#393C56;" vertex="1" parent="nqi_J4vWOUpEKVUcSu3V-59">
          <mxGeometry width="310" height="72" as="geometry">
            <mxRectangle width="310" height="72" as="alternateBounds" />
          </mxGeometry>
        </mxCell>
        <mxCell id="nqi_J4vWOUpEKVUcSu3V-61" value="" style="shape=tableRow;horizontal=0;startSize=0;swimlaneHead=0;swimlaneBody=0;strokeColor=#E07A5F;top=0;left=0;bottom=0;right=0;collapsible=0;dropTarget=0;fillColor=none;points=[[0,0.5],[1,0.5]];portConstraint=eastwest;labelBackgroundColor=none;fontColor=#393C56;" vertex="1" parent="nqi_J4vWOUpEKVUcSu3V-56">
          <mxGeometry y="145" width="310" height="73" as="geometry" />
        </mxCell>
        <mxCell id="nqi_J4vWOUpEKVUcSu3V-62" value="title" style="shape=partialRectangle;html=1;whiteSpace=wrap;connectable=0;strokeColor=#E07A5F;overflow=hidden;fillColor=none;top=0;left=0;bottom=0;right=0;pointerEvents=1;fontSize=41;labelBackgroundColor=none;fontColor=#393C56;" vertex="1" parent="nqi_J4vWOUpEKVUcSu3V-61">
          <mxGeometry width="310" height="73" as="geometry">
            <mxRectangle width="310" height="73" as="alternateBounds" />
          </mxGeometry>
        </mxCell>
        <mxCell id="nqi_J4vWOUpEKVUcSu3V-63" value="" style="shape=tableRow;horizontal=0;startSize=0;swimlaneHead=0;swimlaneBody=0;strokeColor=#E07A5F;top=0;left=0;bottom=0;right=0;collapsible=0;dropTarget=0;fillColor=none;points=[[0,0.5],[1,0.5]];portConstraint=eastwest;labelBackgroundColor=none;fontColor=#393C56;" vertex="1" parent="nqi_J4vWOUpEKVUcSu3V-56">
          <mxGeometry y="218" width="310" height="72" as="geometry" />
        </mxCell>
        <mxCell id="nqi_J4vWOUpEKVUcSu3V-64" value="&lt;font style=&quot;font-size: 33px;&quot;&gt;SurveyId&lt;/font&gt;" style="shape=partialRectangle;html=1;whiteSpace=wrap;connectable=0;strokeColor=#E07A5F;overflow=hidden;fillColor=none;top=0;left=0;bottom=0;right=0;pointerEvents=1;labelBackgroundColor=none;fontColor=#393C56;" vertex="1" parent="nqi_J4vWOUpEKVUcSu3V-63">
          <mxGeometry width="310" height="72" as="geometry">
            <mxRectangle width="310" height="72" as="alternateBounds" />
          </mxGeometry>
        </mxCell>
      </root>
    </mxGraphModel>
  </diagram>
</mxfile>
